<?xml version="1.0" encoding="UTF-8" standalone="no"?>
<!DOCTYPE svg PUBLIC "-//W3C//DTD SVG 1.1//EN" "http://www.w3.org/Graphics/SVG/1.1/DTD/svg11.dtd">
<svg width="100%" height="100%" viewBox="0 0 2309 661" version="1.1" xmlns="http://www.w3.org/2000/svg" xmlns:xlink="http://www.w3.org/1999/xlink" xml:space="preserve" xmlns:serif="http://www.serif.com/" style="fill-rule:evenodd;clip-rule:evenodd;stroke-linecap:round;stroke-linejoin:round;stroke-miterlimit:1.5;">
    <g transform="matrix(1,0,0,1,-79.781216,-179.697193)">
        <g transform="matrix(1,0,0,1,3.504145,-692.003472)">
            <path d="M139.509,1233.061C139.509,1233.061 596.868,859.22 1530.145,889.711C1530.145,889.711 2012.691,852.592 2167.795,987.811C2167.795,987.811 2566.824,1161.475 2216.845,1304.648C1866.867,1447.821 1332.619,1465.055 1332.619,1465.055C1332.619,1465.055 55.992,1592.32 111.67,1357.675C111.67,1357.675 90.459,1307.299 139.509,1233.061Z" style="fill:rgb(7,11,141);stroke:black;stroke-width:1px;"/>
            <g transform="matrix(2.421875,0,0,2.421875,0,410)">
                <path d="M973.14,345.371L973.861,346.716C971.208,348.283 971.437,348.356 968.668,349.784C962.988,352.711 964.114,353.98 959.284,357.145C920.092,382.83 891.58,387.447 872.335,393.014C854.508,398.171 854.481,397.435 836.594,401.874C810.536,408.341 713.336,432.463 504.489,450.242C316.115,466.277 256.411,461.603 251.509,461.666C247.672,461.715 241.995,465.024 235.478,462.552C219.008,456.302 210.612,464.668 121.574,448.051C6.922,426.653 7.192,353.107 91.423,303.369C128.421,281.521 129.532,283.808 132.619,281.727C145.955,272.74 161.322,269.693 161.536,269.578C206.524,245.39 353.789,214.425 363.5,214.494C372.509,214.557 384.294,209.896 389.516,209.799C400.786,209.591 400.529,208.052 401.497,208.069C402.299,208.083 408.364,208.187 411.507,207.554C433.975,203.023 530.014,194.85 533.53,195.252C544.546,196.509 553.286,192.874 562.483,193.069C589.218,193.637 589.171,191.675 591.469,191.995C600.721,193.285 627.995,189.671 702.498,191.646C720.967,192.135 720.895,190.438 722.48,190.657C739.322,192.99 874.746,201.278 890.435,209.6C910.132,220.047 865.306,213.266 865.033,215.37C864.854,216.739 902.438,231.501 903.394,232.592C909.6,239.681 917.033,239.987 927.632,247.354C931.137,249.789 963.039,271.961 968.736,281.352C973.19,288.695 975.621,286.779 979.283,294.601C993.305,324.548 975.075,342.918 973.14,345.371ZM682.5,204.034C652.787,205.368 516.813,199.619 337.551,233.715C284.94,243.722 242.937,257.416 241.507,257.545C233.054,258.31 233.607,259.969 225.397,262.179C202.899,268.235 123.923,295.348 80.897,330.984C16.494,384.326 50.364,426.137 165.498,438.53C171.343,439.159 237.712,446.302 238.606,445.942C247.404,442.391 269.285,446.586 272.555,445.665C279.87,443.606 279.837,445.689 287.494,445.862C311.573,446.406 311.44,444.968 313.52,445.081C337.929,446.405 447.875,437.883 459.539,436.979C565.47,428.768 565.278,426.95 574.505,426.567C598.855,425.557 598.382,422.695 600.476,422.842C619.782,424.196 742.294,404.641 743.368,404.207C751.359,400.974 763.769,400.947 766.641,399.967C781.865,394.774 789.561,396.373 791.398,395.33C800.456,390.182 809.281,392.682 812.482,391.444C835.088,382.707 996.242,355.511 959.709,298.385C946.769,278.151 924.24,264.539 920.598,262.338C817.486,200.037 789.758,209.364 757.478,206.738C707.574,202.678 707.559,205.299 682.5,204.034Z"/>
            </g>
            <g transform="matrix(2.421875,0,0,2.421875,0,410)">
                <path d="M836.807,253.312C837.841,255.108 831.575,273.35 830.097,276.326C828.326,279.889 824.167,292.429 824.167,292.429C824.169,300.974 797.616,351.865 812.103,372.768C814.948,376.873 812.364,377.705 813.111,379.519C813.519,380.509 814.777,384.426 800.512,384.026C783.615,383.551 790.746,353.262 783.256,364.274C781.957,366.241 777.926,372.915 775.934,375.648C756.853,401.824 712.495,393.724 729.298,349.423C733.159,339.242 763.369,284.877 785.983,318.196C790.744,325.211 802.144,293.378 805.053,282.429C805.938,279.098 820.371,224.765 836.807,253.312ZM749.176,356.328C748.824,357.206 740.771,377.295 754.145,367.058C758.909,363.411 777.516,338.658 777.584,335.144C777.724,327.922 769.88,328.447 764.632,333.637C754.702,343.456 755.764,344.137 749.176,356.328Z"/>
            </g>
            <g transform="matrix(2.421875,0,0,2.421875,0,410)">
                <path d="M217.966,357.5C218.658,351.985 216.857,336.135 241.277,314.258C243.534,312.235 261.451,296.183 278.235,305.913C292.248,314.038 286.941,326.793 271.416,321.747C251.408,315.243 233.869,354.197 238.548,358.439C247.991,366.999 281.941,326.357 284.942,322.764C317.856,283.364 311.85,240.72 329.457,237.246C361.947,230.836 324.709,298.625 322.914,303.635C315.439,324.511 316.47,324.803 315.788,326.602C306.285,351.66 308.42,366.044 306.553,371.525C305.995,373.163 295.372,378.359 292.446,377.692C276.053,373.961 286.676,360.328 285.171,357.646C284.413,356.293 224.419,406.874 217.966,357.5Z"/>
            </g>
            <g transform="matrix(2.421875,0,0,2.421875,0,410)">
                <path d="M411.5,393.944C408.055,393.338 399.395,394.796 395.701,381.442C390.072,361.096 419.486,302.163 430.414,305.696C434.805,307.116 437.469,304.797 439.317,310.544C440.717,314.894 444.002,314.665 441.444,318.462C431.976,332.516 420.989,348.854 416.154,369.569C415.064,374.243 442.683,350.893 451.189,334.322C455.588,325.751 461.037,307.7 476.009,326.842C481.423,333.765 453.017,371.93 462.514,370.555C471.696,369.224 486.863,321.238 487.623,320.693C489.573,319.296 513.731,308.262 500.826,347.611C488.489,385.225 466.957,398.67 450.644,392.073C439.475,387.556 443.649,375.708 438.281,380.229C426.527,390.128 426.623,390.562 411.5,393.944Z"/>
            </g>
            <g transform="matrix(2.421875,0,0,2.421875,0,410)">
                <path d="M644.965,362.502C648.559,323.29 687.162,290.053 708.672,316.377C710.607,318.745 713.606,315.726 716.574,317.371C737.047,328.72 713.81,345.936 713.997,367.517C714.067,375.588 728.425,390.708 718.515,389.927C713.215,389.51 700.028,392.376 695.725,382.392C691.63,372.889 689.675,386.09 678.45,387.049C650.633,389.426 645.621,380.946 644.965,362.502ZM667.492,369.131C680.894,366.841 688.967,343.54 689.011,343.374C700.297,300.588 651.165,364.871 667.492,369.131Z"/>
            </g>
            <g transform="matrix(2.421875,0,0,2.421875,0,410)">
                <path d="M321.964,361.492C321.952,359.399 317.087,339.989 340.545,314.546C364.186,288.904 375.542,304.869 378.532,303.568C390.321,298.439 407.754,318.067 392.897,344.747C364.6,395.562 326.331,382.779 321.964,361.492ZM341.955,357.492C346.521,378.395 391.648,319.087 372.512,318.126C366.215,317.81 355.051,328.156 350.874,333.764C343.054,344.263 343.445,344.531 341.955,357.492Z"/>
            </g>
            <g transform="matrix(2.421875,0,0,2.421875,0,410)">
                <path d="M562.855,340.435C560.794,332.975 540.27,355.531 526.829,378.697C523.244,384.878 526.764,388.91 518.48,389.331C516.81,389.415 514.669,390.769 510.58,390.133C495.465,387.784 502.828,377.004 508.359,362.447C508.816,361.244 528.561,317.065 528.766,316.64C531.916,310.084 535.436,312.44 541.604,315.147C544.018,316.206 544.01,327.579 547.41,325.304C558.006,318.216 572.461,303.239 584.318,320.608C589.561,328.288 583.89,343.56 583.199,345.423C582.966,345.834 583.014,345.801 582.171,348.203C573.781,369.309 572.802,377.82 572.494,380.499C572.182,383.216 571.928,388.443 568.572,390.676C565.518,392.707 546.904,397.93 551.949,372.609C552.48,369.944 553.868,362.977 562.855,340.435Z"/>
            </g>
            <g transform="matrix(2.421875,0,0,2.421875,0,410)">
                <path d="M630.075,302.339C653.636,253.975 655.747,255.137 656.59,254.688C658.392,253.729 668.023,257.369 668.247,257.674C673.917,265.399 668.388,274.368 667.635,275.589C654.352,297.135 617.912,374.294 617.787,375.545C617.206,381.415 617.322,382.479 611.477,383.401C582.392,387.989 597.321,367.369 630.075,302.339Z"/>
            </g>
        </g>
    </g>
</svg>
